<svg id="svg" xmlns="http://www.w3.org/2000/svg" xmlns:xlink="http://www.w3.org/1999/xlink" width="400" height="495" viewBox="0, 0, 400,495">
    <g>
        <path  stroke="none" fill="#98c379" fill-rule="evenodd" d="M169.192 1.123 C 82.805 9.197,13.570 75.980,4.948 159.551 C 1.442 193.534,6.530 231.942,19.005 265.669 C 31.172 298.563,41.414 342.872,41.414 362.616 C 41.414 379.732,34.168 400.392,7.461 459.421 C -2.136 480.634,-1.816 486.869,8.867 486.869 C 14.266 486.869,15.803 484.904,23.575 468.067 C 47.403 416.442,58.251 385.924,59.259 367.677 C 60.437 346.359,49.416 297.000,34.000 254.545 C 27.127 235.618,22.222 207.203,22.222 186.312 L 22.222 174.747 57.323 174.744 C 90.567 174.740,92.598 174.634,95.716 172.733 C 105.733 166.625,107.004 145.037,97.742 138.327 C 83.946 128.334,84.854 109.540,99.453 102.909 C 121.942 92.693,138.808 125.324,117.763 138.331 C 108.560 144.018,110.095 165.603,120.192 172.475 C 123.454 174.695,124.171 174.747,151.159 174.747 L 178.788 174.747 178.788 200.000 L 178.788 225.253 173.735 225.253 C 169.123 225.253,168.363 224.900,165.040 221.222 C 148.812 203.259,117.813 208.565,107.243 231.115 C 91.025 265.712,135.369 297.221,163.554 271.126 C 168.929 266.150,169.882 265.657,174.125 265.657 L 178.788 265.657 178.788 296.006 L 178.788 326.354 181.267 328.834 C 184.297 331.864,187.747 331.997,191.278 329.220 L 193.939 327.126 193.939 294.776 C 193.939 266.757,193.715 261.955,192.266 258.901 C 187.074 247.960,163.701 245.866,156.574 255.704 C 140.949 277.274,109.598 258.690,122.817 235.694 C 130.054 223.105,145.018 222.565,155.764 234.505 L 161.527 240.909 171.925 240.909 C 192.444 240.909,193.284 239.469,193.939 203.211 L 194.444 175.253 219.192 175.253 L 243.939 175.253 244.256 178.538 C 244.525 181.331,243.836 182.544,239.663 186.619 C 217.758 208.011,231.601 243.910,262.281 245.276 C 294.372 246.704,310.533 209.619,287.749 186.835 C 283.711 182.797,282.828 181.272,282.828 178.331 L 282.828 174.747 316.667 174.747 L 350.505 174.747 350.505 178.858 C 350.505 181.119,349.154 189.736,347.502 198.008 C 339.869 236.230,342.865 247.822,369.688 283.838 C 386.957 307.027,386.761 309.319,367.358 311.003 C 354.355 312.133,350.244 313.948,345.777 320.535 C 339.374 329.975,339.420 341.197,345.899 350.661 C 348.046 353.797,348.190 354.442,346.858 354.954 C 342.113 356.774,328.170 354.086,318.778 349.539 C 313.264 346.870,309.824 346.929,306.621 349.747 C 298.341 357.034,306.240 366.046,325.059 370.780 C 328.258 371.585,332.023 373.501,334.394 375.530 L 338.368 378.932 331.362 382.437 C 322.475 386.883,320.977 389.285,316.628 406.066 C 308.249 438.398,301.410 441.998,269.192 431.035 C 245.358 422.926,232.124 423.246,214.056 432.366 C 190.031 444.494,163.965 482.882,173.370 492.287 C 179.197 498.114,184.985 495.413,190.199 484.435 C 207.526 447.949,230.767 436.755,264.646 448.577 C 303.427 462.110,321.824 453.062,332.712 415.104 L 337.189 399.495 344.840 395.635 C 355.956 390.026,359.538 382.995,356.251 373.232 C 355.696 371.585,356.340 370.838,359.740 369.184 C 368.968 364.696,370.137 354.722,362.758 343.431 C 359.338 338.197,358.588 336.262,359.052 333.870 C 359.894 329.533,360.142 329.426,371.747 328.389 C 391.278 326.643,400.001 319.527,399.999 305.343 C 399.998 297.312,396.753 290.913,382.947 271.717 C 376.753 263.106,369.534 251.784,366.904 246.556 L 362.121 237.051 362.181 225.849 C 362.224 217.858,363.025 210.780,364.978 201.158 C 368.778 182.432,369.761 171.503,368.630 160.570 C 358.563 63.266,269.149 -8.220,169.192 1.123 M177.782 45.202 C 177.786 76.118,177.830 76.303,186.593 81.860 C 198.587 89.467,208.397 89.108,213.595 80.873 C 222.814 66.270,241.878 66.222,249.242 80.783 C 260.341 102.727,228.378 120.568,214.779 100.020 C 207.945 89.692,195.884 89.471,184.055 99.459 C 177.916 104.642,177.778 105.396,177.778 133.788 L 177.778 159.596 153.159 159.596 L 128.541 159.596 127.882 155.472 C 127.248 151.512,127.423 151.159,132.240 146.633 C 153.318 126.831,141.967 90.507,113.283 85.973 C 79.187 80.583,58.455 122.310,83.248 146.422 C 87.330 150.392,87.879 151.439,87.879 155.261 L 87.879 159.596 55.416 159.596 L 22.954 159.596 23.630 153.788 C 31.840 83.274,98.439 24.064,176.010 18.313 C 177.653 18.191,177.778 20.093,177.782 45.202 M208.423 19.697 C 277.676 28.775,333.643 79.099,347.503 144.753 C 348.581 149.861,349.470 155.290,349.479 156.818 L 349.495 159.596 314.042 159.596 C 269.411 159.596,268.603 159.886,267.060 176.481 C 266.011 187.769,266.850 190.235,273.384 195.061 C 286.212 204.538,285.739 221.739,272.475 228.160 C 251.253 238.434,233.731 209.238,253.115 195.901 C 259.050 191.818,259.596 190.488,259.594 180.117 C 259.591 160.643,257.625 159.596,221.063 159.596 L 192.929 159.596 192.929 135.927 L 192.929 112.259 195.863 110.170 C 199.761 107.394,199.517 107.310,205.433 113.439 C 223.333 131.981,251.823 127.625,263.199 104.608 C 281.324 67.935,232.712 36.088,204.960 66.453 L 199.999 71.881 196.464 69.697 L 192.929 67.512 192.929 42.847 C 192.929 19.071,193.000 18.182,194.898 18.182 C 195.980 18.182,202.067 18.864,208.423 19.697 "></path>
    </g>
</svg>
